<?xml version="1.0" encoding="UTF-8" standalone="no"?>
<!-- Created with Inkscape (http://www.inkscape.org/) -->

<svg
   xmlns:dc="http://purl.org/dc/elements/1.1/"
   xmlns:cc="http://creativecommons.org/ns#"
   xmlns:rdf="http://www.w3.org/1999/02/22-rdf-syntax-ns#"
   xmlns:svg="http://www.w3.org/2000/svg"
   xmlns="http://www.w3.org/2000/svg"
   xmlns:sodipodi="http://sodipodi.sourceforge.net/DTD/sodipodi-0.dtd"
   xmlns:inkscape="http://www.inkscape.org/namespaces/inkscape"
   width="210mm"
   height="297mm"
   viewBox="0 0 744.09448819 1052.3622047"
   id="svg4224"
   version="1.1"
   inkscape:version="0.91 r13725"
   sodipodi:docname="drawing2.svg">
  <defs
     id="defs4226" />
  <sodipodi:namedview
     id="base"
     pagecolor="#ffffff"
     bordercolor="#666666"
     borderopacity="1.0"
     inkscape:pageopacity="0.0"
     inkscape:pageshadow="2"
     inkscape:zoom="1.7945308"
     inkscape:cx="375"
     inkscape:cy="692.39782"
     inkscape:document-units="px"
     inkscape:current-layer="layer1"
     showgrid="false"
     showguides="false"
     inkscape:window-width="1366"
     inkscape:window-height="706"
     inkscape:window-x="-8"
     inkscape:window-y="-8"
     inkscape:window-maximized="1" />
  <metadata
     id="metadata4229">
    <rdf:RDF>
      <cc:Work
         rdf:about="">
        <dc:format>image/svg+xml</dc:format>
        <dc:type
           rdf:resource="http://purl.org/dc/dcmitype/StillImage" />
        <dc:title></dc:title>
      </cc:Work>
    </rdf:RDF>
  </metadata>
  <g
     inkscape:label="Layer 1"
     inkscape:groupmode="layer"
     id="layer1">
    <path
       style="fill:#ff00ff;fill-rule:evenodd;stroke:#000000;stroke-width:0.37589371px;stroke-linecap:butt;stroke-linejoin:miter;stroke-opacity:1"
       d="m 276.49142,336.80294 c -15.39435,0.24586 -45.89599,25.47922 -45.89599,25.47922 -46.2608,0.73459 -27.87514,16.66372 -27.38626,17.08036 -0.33529,0.0213 -0.25122,0.0158 -0.60765,0.0385 -19.78861,1.25692 -10.36184,10.44777 -6.94029,13.28638 -0.0824,0.0421 -0.13711,0.0689 -0.22041,0.11147 -30.59752,15.63052 -5.20864,15.63043 -5.20864,15.63043 0,0 97.65169,-5.9546 0,0.74419 -97.651704,6.69879 13.02025,23.81814 13.02025,23.81814 l 61.19511,-1.48839 c 0,0 -0.17956,0.85575 -0.23277,1.10687 0.18289,0.0863 0.36769,0.17883 0.55548,0.27319 0.11491,-0.48417 0.20447,-0.85666 0.3282,-1.38006 2.00349,-8.4753 1.10418,-15.39394 -1.09446,-20.91907 -0.98845,-0.71958 -1.3425,-1.84997 -1.45494,-3.13378 -5.44221,-10.19956 -15.02791,-14.65152 -15.02791,-14.65152 l 19.3371,-1.16339 c 0.076,-0.0833 0.15142,-0.16761 0.23001,-0.24728 0.38281,-0.38807 1.00292,-0.23176 1.50437,-0.34776 0.57885,0.19449 1.03282,0.29621 1.42541,0.40506 l 0.58294,-0.0353 c -0.0281,0.0682 -0.0541,0.1307 -0.081,0.19626 0.0759,0.0301 0.14674,0.0697 0.21903,0.10597 0.0451,-0.108 0.0918,-0.2198 0.1332,-0.31871 l 0.69485,-0.0416 c -0.21338,0.20751 -0.36816,0.36278 -0.53418,0.52832 0.0462,0.0324 0.0923,0.0687 0.13801,0.10597 0.0444,0.005 0.0979,0.0102 0.14007,0.0149 0.2446,-0.21207 0.49699,-0.4079 0.77999,-0.53774 0.70494,-0.32342 1.20371,-0.38891 1.71516,-0.35718 1.89971,-1.51268 3.88619,-3.1327 5.52175,-4.47537 -0.83929,0.12692 -1.50312,-0.24446 -2.83641,-0.7175 -0.0326,-0.0116 0.0507,-0.0978 0.0199,-0.11462 -0.80368,-0.43725 -1.63456,-0.80532 -2.45189,-1.20813 -0.19632,-0.0968 -0.3691,-0.19936 -0.52252,-0.30616 -0.0229,0.0555 -0.0331,0.0813 -0.0556,0.13581 l -15.54356,0.93495 3.25524,-4.46595 14.97298,-2.97677 c 0,0 -0.049,0.11974 -0.0501,0.12246 0.16823,-0.12554 0.32295,-0.23016 0.48132,-0.33992 0.0884,-0.21175 0.12419,-0.2978 0.21972,-0.52674 12.95919,-31.05751 9.22294,-40.51796 -0.32546,-40.36546 z m -13.7254,102.82909 c -0.001,0.004 -0.001,0.007 -0.002,0.0118 0.006,-8.1e-4 0.0123,-0.003 0.0185,-0.004 -0.006,-0.003 -0.0106,-0.005 -0.0165,-0.008 z"
       id="path4234"
       inkscape:connector-curvature="0" />
    <ellipse
       style="fill:#800080"
       id="path4261"
       cx="270.30682"
       cy="354.09457"
       rx="5.2080903"
       ry="5.954483" />
  </g>
</svg>
