<?xml version="1.0" encoding="UTF-8" standalone="no"?>
<!-- Created with Inkscape (http://www.inkscape.org/) -->

<svg
   xmlns:dc="http://purl.org/dc/elements/1.1/"
   xmlns:cc="http://creativecommons.org/ns#"
   xmlns:rdf="http://www.w3.org/1999/02/22-rdf-syntax-ns#"
   xmlns:svg="http://www.w3.org/2000/svg"
   xmlns="http://www.w3.org/2000/svg"
   xmlns:sodipodi="http://sodipodi.sourceforge.net/DTD/sodipodi-0.dtd"
   xmlns:inkscape="http://www.inkscape.org/namespaces/inkscape"
   width="210mm"
   height="297mm"
   viewBox="0 0 744.09448819 1052.3622047"
   id="svg2"
   version="1.1"
   inkscape:version="0.91 r13725"
   sodipodi:docname="drawing1.svg"
   inkscape:export-filename="C:\xampp\htdocs\JesusOAwsomenauts\data\img\drawing1.png"
   inkscape:export-xdpi="90"
   inkscape:export-ydpi="90">
  <defs
     id="defs4" />
  <sodipodi:namedview
     id="base"
     pagecolor="#ffffff"
     bordercolor="#666666"
     borderopacity="1.0"
     inkscape:pageopacity="0.0"
     inkscape:pageshadow="2"
     inkscape:zoom="0.41053452"
     inkscape:cx="712.03641"
     inkscape:cy="558.71485"
     inkscape:document-units="px"
     inkscape:current-layer="layer1"
     showgrid="false"
     inkscape:window-width="1366"
     inkscape:window-height="706"
     inkscape:window-x="-8"
     inkscape:window-y="-8"
     inkscape:window-maximized="1" />
  <metadata
     id="metadata7">
    <rdf:RDF>
      <cc:Work
         rdf:about="">
        <dc:format>image/svg+xml</dc:format>
        <dc:type
           rdf:resource="http://purl.org/dc/dcmitype/StillImage" />
        <dc:title></dc:title>
      </cc:Work>
    </rdf:RDF>
  </metadata>
  <g
     inkscape:label="Layer 1"
     inkscape:groupmode="layer"
     id="layer1">
    <path
       inkscape:connector-curvature="0"
       id="path4184"
       d="M 367.21244,342.43179 C 501.49816,279.57465 461.49816,228.14608 461.49816,228.14608 Z"
       style="fill:#c8beb7;fill-rule:evenodd;stroke:#000000;stroke-width:1px;stroke-linecap:butt;stroke-linejoin:miter;stroke-opacity:1" />
    <path
       style="fill:#c8beb7;fill-rule:evenodd;stroke:#000000;stroke-width:1px;stroke-linecap:butt;stroke-linejoin:miter;stroke-opacity:1"
       d="M 231.42857,352.36221 C 168.57143,218.07649 117.14286,258.07649 117.14286,258.07649 Z"
       id="path4182"
       inkscape:connector-curvature="0" />
    <path
       inkscape:connector-curvature="0"
       id="path3380"
       d="m 357.16674,729.61114 c 8.16884,-5.19502 9.82865,6.3429 14.28571,8.57143 0.85184,0.42592 2.18371,-0.67343 2.85715,0 5.91153,5.91153 -9.03361,-0.23108 2.85714,5.71429 0.85183,0.42592 2.18371,-0.67344 2.85714,0 0.67344,0.67343 -0.67343,2.18371 0,2.85714 0.67344,0.67344 2.00531,-0.42592 2.85714,0 2.40936,1.20468 3.30494,4.50961 5.71429,5.71429 0.85184,0.42591 2.00531,-0.42592 2.85714,0 1.20468,0.60234 1.65247,2.2548 2.85715,2.85714 0.85183,0.42592 2.1837,-0.67344 2.85714,0 0.67343,0.67343 -0.67344,2.18371 0,2.85714 0.67343,0.67344 1.90476,0 2.85714,0 1.90476,0 4.01062,-0.85183 5.71429,0 1.70367,0.85184 -1.34687,4.36742 0,5.71429 0.67343,0.67343 2.0053,-0.42592 2.85714,0 1.20468,0.60234 1.65247,2.2548 2.85714,2.85714 0.85184,0.42592 1.90476,0 2.85715,0 0.95238,0 1.90476,0 2.85714,0 4.7619,0 9.52381,0 14.28571,0 18.09524,0 36.19048,0 54.28572,0 5.71428,0 11.42857,0 17.14285,0 1.28674,0 7.70191,0.43476 8.57143,0 1.20468,-0.60234 1.65247,-2.2548 2.85714,-2.85714 1.70368,-0.85184 4.36742,1.34687 5.71429,0 0.67343,-0.67344 -0.95238,-2.85714 0,-2.85714 0.95238,0 0,3.80952 0,2.85714 0,-1.90476 0,-3.80953 0,-5.71429 0,-0.95238 -0.67344,-2.18371 0,-2.85714 0.67343,-0.67344 2.18371,0.67343 2.85714,0 0.67344,-0.67344 -0.42591,-2.00531 0,-2.85714 0.60234,-1.20468 2.25481,-1.65247 2.85715,-2.85715 0.51661,-1.03323 0,-12.29845 0,-14.28571 0,-2.45237 0.55721,-15.47121 0,-17.14286 -2.97269,-8.91806 -1.90477,0.95238 -5.71429,-2.85714 -1.34687,-1.34687 0.85184,-4.01062 0,-5.71429 -0.60234,-1.20467 -2.2548,-1.65246 -2.85714,-2.85714 -0.42592,-0.85183 0.42591,-2.00531 0,-2.85714 -1.20468,-2.40936 -4.50961,-3.30493 -5.71429,-5.71429 -0.56642,-1.13283 0.58411,-7.98732 0,-8.57143 -0.67343,-0.67343 -2.18371,0.67344 -2.85714,0 -0.67344,-0.67343 0.67343,-2.1837 0,-2.85714 -0.67344,-0.67343 -2.18371,0.67344 -2.85714,0 -1.34687,-1.34687 1.34687,-4.36741 0,-5.71428 -1.34687,-1.34687 -4.36742,1.34687 -5.71429,0 -0.67344,-0.67344 0.67343,-2.18371 0,-2.85715 -0.88471,-0.8847 -13.40101,0.88471 -14.28571,0 -0.67344,-0.67343 0.67343,-2.18371 0,-2.85714 -0.67344,-0.67344 -1.90477,0 -2.85715,0 -0.95238,0 -1.90476,0 -2.85714,0 -8.57143,0 -17.14286,0 -25.71429,0 -3.80952,0 -7.61904,0 -11.42857,0 -0.95238,0 -1.90476,0 -2.85714,0 -0.95238,0 -2.85714,0.95238 -2.85714,0 0,-0.95238 3.80952,0 2.85714,0 -1.90476,0 -3.80952,0 -5.71428,0 -0.95239,0 2.1837,0.67343 2.85714,0 0.67343,-0.67344 0,-1.90476 0,-2.85714 1.90476,0 4.01061,0.85183 5.71428,0 0.85184,-0.42592 -0.67343,-2.18371 0,-2.85715 0.78178,-0.78177 9.87861,0.77499 11.42857,0 3.42858,-1.71428 5.14286,-6.85714 8.57143,-8.57142 0.85184,-0.42592 2.18371,0.67343 2.85715,0 0.67343,-0.67344 -0.67344,-2.18371 0,-2.85715 1.34687,-1.34687 4.36741,1.34687 5.71428,0 1.90099,-1.90099 -1.90099,-3.81329 0,-5.71428 5.91153,-5.91153 -0.23109,9.0336 5.71429,-2.85715 0.56641,-1.13283 -0.58411,-7.98732 0,-8.57142 5.91153,-5.91153 -0.23109,9.0336 5.71428,-2.85715 0.42592,-0.85183 -0.42591,-2.00531 0,-2.85714 0.60234,-1.20468 2.25481,-1.65247 2.85715,-2.85714 0.42591,-0.85184 -0.42592,-2.00531 0,-2.85715 1.20467,-2.40935 4.5096,-3.30493 5.71428,-5.71428 0.56642,-1.13284 -0.5841,-7.98733 0,-8.57143 0.67344,-0.67344 2.18371,0.67343 2.85714,0 0.11498,-0.11498 0,-10.37932 0,-11.42857 0,-0.69294 0.0919,-8.47954 0,-8.57143 -1.34687,-1.34687 -4.36741,1.34687 -5.71428,0 -0.67344,-0.67344 0.67343,-2.18371 0,-2.85714 -1.34687,-1.34687 -4.01062,0.85183 -5.71429,0 -1.20467,-0.60234 -1.65246,-2.25481 -2.85714,-2.85715 -0.86953,-0.43476 -7.28469,0 -8.57143,0 -6.66667,0 -13.33333,0 -20,0 -7.61904,0 -15.23809,0 -22.85714,0 -0.95238,0 -2.18371,-0.67343 -2.85714,0 -0.67344,0.67344 0.67343,2.18371 0,2.85715 -1.34687,1.34687 -4.36742,-1.34687 -5.71429,0 0,7.61904 0.95238,-0.95238 -2.85714,2.85714 -0.67344,0.67343 0.67343,2.18371 0,2.85714 -0.67344,0.67344 -2.18371,-0.67343 -2.85714,0 -0.67344,0.67344 0.67343,2.18371 0,2.85715 -0.58411,0.5841 -7.4386,-0.56642 -8.57143,0 -1.20468,0.60233 -1.65247,2.2548 -2.85715,2.85714 -0.85183,0.42592 -2.0053,-0.42592 -2.85714,0 -1.20468,0.60234 -1.65246,2.2548 -2.85714,2.85714 -0.85184,0.42592 -2.18371,-0.67343 -2.85714,0 -5.91153,5.91153 9.0336,-0.23109 -2.85715,5.71429 -0.85183,0.42591 -2.0053,-0.42592 -2.85714,0 -0.54692,0.27345 -11.15511,10.88165 -11.42857,11.42857 -1.14286,2.28571 1.14286,6.28571 0,8.57143 -0.60234,1.20467 -2.25481,1.65246 -2.85714,2.85714 -0.42592,0.85183 0.42591,2.00531 0,2.85714 -0.60234,1.20468 -2.25481,1.65247 -2.85715,2.85715 -0.42591,0.85183 0.67344,2.1837 0,2.85714 -0.67343,0.67343 -2.1837,-0.67344 -2.85714,0 -1.00291,1.00291 0.98676,12.31219 0,14.28571 -0.60234,1.20468 -2.2548,1.65247 -2.85714,2.85715 -0.56642,1.13283 0.5841,7.98732 0,8.57142 -0.67344,0.67344 -2.18371,-0.67343 -2.85715,0 -0.67343,0.67344 0.67344,2.18371 0,2.85715 -0.67343,0.67343 -2.1837,-0.67344 -2.85714,0 -0.5841,0.5841 0.56642,7.43859 0,8.57143 -0.60234,1.20467 -2.43122,1.57939 -2.85714,2.85714 -0.60234,1.80701 0.46197,3.86639 0,5.71428 -0.5165,2.06601 -2.18371,3.69398 -2.85714,5.71429 -0.53734,1.612 0,6.69398 0,8.57143 0,3.52212 -0.61097,11.23087 0,14.28571 0.7701,3.85051 1.90476,7.61905 2.85714,11.42857 z"
       style="fill:#c8b7b7;fill-rule:evenodd;stroke:#000000;stroke-width:1px;stroke-linecap:butt;stroke-linejoin:miter;stroke-opacity:1" />
    <path
       style="fill:#c8b7b7;fill-rule:evenodd;stroke:#000000;stroke-width:1px;stroke-linecap:butt;stroke-linejoin:miter;stroke-opacity:1"
       d="m 277.14286,655.21935 c -8.16884,5.19502 -9.82865,-6.3429 -14.28571,-8.57143 -0.85184,-0.42592 -2.18371,0.67343 -2.85715,0 -5.91153,-5.91153 9.03361,0.23108 -2.85714,-5.71429 -0.85183,-0.42592 -2.18371,0.67344 -2.85714,0 -0.67344,-0.67343 0.67343,-2.18371 0,-2.85714 -0.67344,-0.67344 -2.00531,0.42592 -2.85714,0 -2.40936,-1.20468 -3.30494,-4.50961 -5.71429,-5.71429 -0.85184,-0.42591 -2.00531,0.42592 -2.85714,0 -1.20468,-0.60234 -1.65247,-2.2548 -2.85715,-2.85714 -0.85183,-0.42592 -2.1837,0.67344 -2.85714,0 -0.67343,-0.67343 0.67344,-2.18371 0,-2.85714 -0.67343,-0.67344 -1.90476,0 -2.85714,0 -1.90476,0 -4.01062,0.85183 -5.71429,0 -1.70367,-0.85184 1.34687,-4.36742 0,-5.71429 -0.67343,-0.67343 -2.0053,0.42592 -2.85714,0 -1.20468,-0.60234 -1.65247,-2.2548 -2.85714,-2.85714 -0.85184,-0.42592 -1.90476,0 -2.85715,0 -0.95238,0 -1.90476,0 -2.85714,0 -4.7619,0 -9.52381,0 -14.28571,0 -18.09525,0 -36.19048,0 -54.28572,0 -5.71429,0 -11.42857,0 -17.14286,0 -1.28673,0 -7.7019,-0.43476 -8.57143,0 -1.20467,0.60234 -1.65246,2.2548 -2.85714,2.85714 -1.70367,0.85184 -4.36742,-1.34687 -5.71429,0 -0.67343,0.67344 0.95239,2.85714 0,2.85714 -0.95238,0 0,-3.80952 0,-2.85714 0,1.90476 0,3.80953 0,5.71429 0,0.95238 0.67344,2.18371 0,2.85714 -0.67343,0.67344 -2.1837,-0.67343 -2.85714,0 -0.67343,0.67344 0.42592,2.00531 0,2.85714 -0.60234,1.20468 -2.2548,1.65247 -2.85714,2.85715 -0.51662,1.03323 0,12.29845 0,14.28571 0,2.45237 -0.55722,15.47121 0,17.14286 2.97268,8.91806 1.90476,-0.95238 5.71428,2.85714 1.34687,1.34687 -0.85183,4.01062 0,5.71429 0.60234,1.20467 2.25481,1.65246 2.85715,2.85714 0.42591,0.85183 -0.42592,2.00531 0,2.85714 1.20467,2.40936 4.50961,3.30493 5.71428,5.71429 0.56642,1.13283 -0.5841,7.98732 0,8.57143 0.67344,0.67343 2.18371,-0.67344 2.85715,0 0.67343,0.67343 -0.67344,2.1837 0,2.85714 0.67343,0.67343 2.1837,-0.67344 2.85714,0 1.34687,1.34687 -1.34687,4.36741 0,5.71428 1.34687,1.34687 4.36741,-1.34687 5.71428,0 0.67344,0.67344 -0.67343,2.18371 0,2.85715 0.88471,0.8847 13.40101,-0.88471 14.28572,0 0.67343,0.67343 -0.67344,2.18371 0,2.85714 0.67343,0.67344 1.90476,0 2.85714,0 0.95238,0 1.90476,0 2.85714,0 8.57143,0 17.14286,0 25.71429,0 3.80952,0 7.61905,0 11.42858,0 0.95238,0 1.90476,0 2.85714,0 0.95238,0 2.85714,-0.95238 2.85714,0 0,0.95238 -3.80952,0 -2.85714,0 1.90476,0 3.80952,0 5.71428,0 0.95239,0 -2.1837,-0.67343 -2.85714,0 -0.67343,0.67344 0,1.90476 0,2.85714 -1.90476,0 -4.01061,-0.85183 -5.71428,0 -0.85184,0.42592 0.67343,2.18371 0,2.85715 -0.78178,0.78177 -9.87862,-0.77499 -11.42858,0 -3.42857,1.71428 -5.14286,6.85714 -8.57143,8.57142 -0.85183,0.42592 -2.18371,-0.67343 -2.85714,0 -0.67344,0.67344 0.67343,2.18371 0,2.85715 -1.34687,1.34687 -4.36742,-1.34687 -5.71429,0 -1.90099,1.90099 1.90099,3.81329 0,5.71428 -5.91153,5.91153 0.23109,-9.0336 -5.71428,2.85715 -0.56642,1.13283 0.5841,7.98732 0,8.57142 -5.91153,5.91153 0.23108,-9.0336 -5.71429,2.85715 -0.42592,0.85183 0.42592,2.00531 0,2.85714 -0.60234,1.20468 -2.2548,1.65247 -2.85714,2.85714 -0.42592,0.85184 0.42592,2.00531 0,2.85715 -1.20468,2.40935 -4.50961,3.30493 -5.71429,5.71428 -0.56641,1.13284 0.58411,7.98733 0,8.57143 -0.67343,0.67344 -2.18371,-0.67343 -2.85714,0 -0.11498,0.11498 0,10.37932 0,11.42857 0,0.69294 -0.0919,8.47954 0,8.57143 1.34687,1.34687 4.36742,-1.34687 5.71429,0 0.67343,0.67344 -0.67344,2.18371 0,2.85714 1.34687,1.34687 4.01061,-0.85183 5.71428,0 1.20468,0.60234 1.65247,2.25481 2.85714,2.85715 0.86953,0.43476 7.2847,0 8.57143,0 6.66667,0 13.33334,0 20,0 7.61905,0 15.2381,0 22.85715,0 0.95238,0 2.18371,0.67343 2.85714,0 0.67344,-0.67344 -0.67343,-2.18371 0,-2.85715 1.34687,-1.34687 4.36742,1.34687 5.71429,0 0,-7.61904 -0.95238,0.95238 2.85714,-2.85714 0.67344,-0.67343 -0.67343,-2.18371 0,-2.85714 0.67344,-0.67344 2.18371,0.67343 2.85714,0 0.67344,-0.67344 -0.67343,-2.18371 0,-2.85715 0.58411,-0.5841 7.4386,0.56642 8.57143,0 1.20468,-0.60233 1.65247,-2.2548 2.85715,-2.85714 0.85183,-0.42592 2.0053,0.42592 2.85714,0 1.20468,-0.60234 1.65246,-2.2548 2.85714,-2.85714 0.85184,-0.42592 2.18371,0.67343 2.85714,0 5.91153,-5.91153 -9.0336,0.23109 2.85715,-5.71429 0.85183,-0.42591 2.0053,0.42592 2.85714,0 0.54692,-0.27345 11.15511,-10.88165 11.42857,-11.42857 1.14286,-2.28571 -1.14286,-6.28571 0,-8.57143 0.60234,-1.20467 2.25481,-1.65246 2.85714,-2.85714 0.42592,-0.85183 -0.42591,-2.00531 0,-2.85714 0.60234,-1.20468 2.25481,-1.65247 2.85715,-2.85715 0.42591,-0.85183 -0.67344,-2.1837 0,-2.85714 0.67343,-0.67343 2.1837,0.67344 2.85714,0 1.00291,-1.00291 -0.98676,-12.31219 0,-14.28571 0.60234,-1.20468 2.2548,-1.65247 2.85714,-2.85715 0.56642,-1.13283 -0.5841,-7.98732 0,-8.57142 0.67344,-0.67344 2.18371,0.67343 2.85715,0 0.67343,-0.67344 -0.67344,-2.18371 0,-2.85715 0.67343,-0.67343 2.1837,0.67344 2.85714,0 0.5841,-0.5841 -0.56642,-7.43859 0,-8.57143 0.60234,-1.20467 2.43122,-1.57939 2.85714,-2.85714 0.60234,-1.80701 -0.46197,-3.86639 0,-5.71428 0.5165,-2.06601 2.18371,-3.69398 2.85714,-5.71429 0.53734,-1.612 0,-6.69398 0,-8.57143 0,-3.52212 0.61097,-11.23087 0,-14.28571 -0.7701,-3.85051 -1.90476,-7.61905 -2.85714,-11.42857 z"
       id="path3378"
       inkscape:connector-curvature="0" />
    <ellipse
       style="fill:#000000"
       id="path3368"
       cx="315.71429"
       cy="698.07648"
       rx="75.714287"
       ry="137.14285" />
    <ellipse
       style="fill:#ff0000"
       id="path3354"
       cx="314.28571"
       cy="452.36221"
       rx="162.85715"
       ry="142.85715" />
    <ellipse
       style="fill:#ff0000"
       id="path3342"
       cx="180.00002"
       cy="430.93359"
       rx="57.142857"
       ry="52.857143" />
    <ellipse
       ry="52.857143"
       rx="57.142857"
       cy="422.36215"
       cx="440"
       id="ellipse3348"
       style="fill:#ff0000" />
    <ellipse
       ry="28.571428"
       rx="31.428572"
       cy="429.505"
       cx="174.28571"
       id="ellipse3338"
       style="fill:#ffffff" />
    <ellipse
       style="fill:#ffffff"
       id="path3336"
       cx="448.57141"
       cy="420.93362"
       rx="31.428572"
       ry="28.571428" />
    <ellipse
       style="fill:#000000"
       id="path3364"
       cx="172.85716"
       cy="430.93362"
       rx="21.428572"
       ry="15.714286" />
    <ellipse
       ry="15.714286"
       rx="21.428572"
       cy="422.36218"
       cx="450.00003"
       id="ellipse3366"
       style="fill:#000000" />
    <path
       style="fill:#cccccc;fill-rule:evenodd;stroke:#000000;stroke-width:1px;stroke-linecap:butt;stroke-linejoin:miter;stroke-opacity:1"
       d="M 297.14286,772.3622 C 240,866.64792 314.28572,935.21937 314.28572,935.21937 L 240,866.64792 Z"
       id="path4186"
       inkscape:connector-curvature="0" />
    <path
       inkscape:connector-curvature="0"
       id="path4188"
       d="M 357.14287,935.21937 C 414.28573,840.93365 340,772.3622 340,772.3622 l 74.28573,68.57145 z"
       style="fill:#cccccc;fill-rule:evenodd;stroke:#000000;stroke-width:1px;stroke-linecap:butt;stroke-linejoin:miter;stroke-opacity:1" />
    <path
       style="fill:#b3b3b3;fill-rule:evenodd;stroke:#000000;stroke-width:1px;stroke-linecap:butt;stroke-linejoin:miter;stroke-opacity:1"
       d="m 302.85714,906.64792 c -3.80952,0.95238 -7.91636,1.10104 -11.42857,2.85714 -0.85183,0.42592 0.42592,2.00531 0,2.85714 -0.60234,1.20468 -2.2548,1.65247 -2.85714,2.85714 -0.42592,0.85184 0.42592,2.00531 0,2.85715 -5.94537,11.89074 0.19724,-3.05439 -5.71429,2.85714 -0.67343,0.67344 0.67344,2.18371 0,2.85714 -0.67343,0.67344 -2.1837,-0.67343 -2.85714,0 -0.67343,0.67344 0.67344,2.18371 0,2.85715 -0.67343,0.67343 -2.18371,-0.67344 -2.85714,0 -1.34687,1.34687 1.34687,4.36741 0,5.71428 -0.67344,0.67344 -2.18371,-0.67343 -2.85715,0 -0.11497,0.11498 0,10.37933 0,11.42857 0,0.69294 -0.0919,8.47955 0,8.57143 0.67344,0.67344 1.90477,0 2.85715,0 4.7619,0 9.52381,0 14.28571,0 6.66667,0 13.33333,0 20,0 0.95238,0 2.18371,0.67344 2.85714,0 1.34687,-1.34687 -1.90476,-5.71428 0,-5.71428 0.95238,0 -0.95238,2.85714 0,2.85714 4.37119,0 2.85714,-9.12735 2.85714,-11.42857 0,-2.85715 0,-5.71429 0,-8.57143 0,-0.95238 -0.95238,-2.85714 0,-2.85714 0.95238,0 0,3.80952 0,2.85714 0,-3.80952 0,-7.61905 0,-11.42857 0,-0.95238 -0.95238,-2.85715 0,-2.85715 0.95238,0 0.95238,2.85715 0,2.85715 -1.34687,0 -1.65246,-2.25481 -2.85714,-2.85715 -0.85183,-0.42591 -2.09523,0.57143 -2.85714,0 -3.23249,-2.42436 -5.71428,-5.71428 -8.57143,-8.57142 z"
       id="path4190"
       inkscape:connector-curvature="0" />
    <path
       inkscape:connector-curvature="0"
       id="path4192"
       d="m 404.76695,930.75169 c -0.95238,-3.80952 -1.10104,-7.91636 -2.85714,-11.42857 -0.42592,-0.85183 -2.00531,0.42592 -2.85714,0 -1.20468,-0.60234 -1.65247,-2.2548 -2.85714,-2.85714 -0.85184,-0.42592 -2.00531,0.42592 -2.85715,0 -11.89074,-5.94537 3.05439,0.19724 -2.85714,-5.71429 -0.67344,-0.67343 -2.18371,0.67344 -2.85714,0 -0.67344,-0.67343 0.67343,-2.1837 0,-2.85714 -0.67344,-0.67343 -2.18371,0.67344 -2.85715,0 -0.67343,-0.67343 0.67344,-2.18371 0,-2.85714 -1.34687,-1.34687 -4.36741,1.34687 -5.71428,0 -0.67344,-0.67344 0.67343,-2.18371 0,-2.85715 -0.11498,-0.11497 -10.37933,0 -11.42857,0 -0.69294,0 -8.47955,-0.0919 -8.57143,0 -0.67344,0.67344 0,1.90477 0,2.85715 0,4.7619 0,9.52381 0,14.28571 0,6.66667 0,13.33333 0,20 0,0.95238 -0.67344,2.18371 0,2.85714 1.34687,1.34687 5.71428,-1.90476 5.71428,0 0,0.95238 -2.85714,-0.95238 -2.85714,0 0,4.37119 9.12735,2.85714 11.42857,2.85714 2.85715,0 5.71429,0 8.57143,0 0.95238,0 2.85714,-0.95238 2.85714,0 0,0.95238 -3.80952,0 -2.85714,0 3.80952,0 7.61905,0 11.42857,0 0.95238,0 2.85715,-0.95238 2.85715,0 0,0.95238 -2.85715,0.95238 -2.85715,0 0,-1.34687 2.25481,-1.65246 2.85715,-2.85714 0.42591,-0.85183 -0.57143,-2.09523 0,-2.85714 2.42436,-3.23249 5.71428,-5.71428 8.57142,-8.57143 z"
       style="fill:#b3b3b3;fill-rule:evenodd;stroke:#000000;stroke-width:1px;stroke-linecap:butt;stroke-linejoin:miter;stroke-opacity:1" />
    <path
       style="fill:#b3b3b3"
       id="path4194"
       d="m 259.53975,517.04674 c 8.69581,0.0193 17.43696,0.5895 26.09397,-0.35684 8.53962,-2.17981 17.24537,-3.65676 25.99929,-4.63732 6.51217,-0.64755 13.06083,-0.73045 19.59931,-0.71396 8.14806,0.0539 16.29628,0.0676 24.44444,0.10462 7.74426,0.007 15.48844,-0.0361 23.23263,-0.0606 5.91875,-0.0179 11.83753,-0.0213 17.7563,-0.0234 4.74533,-10e-4 9.49066,-7.7e-4 14.23599,-6.1e-4 0,0 -34.22282,24.86436 -34.22282,24.86436 l 0,0 c -4.7449,2.3e-4 -9.4898,6.3e-4 -14.2347,-2.7e-4 -5.8973,-0.002 -11.7946,-0.005 -17.69186,-0.0247 -7.67766,-0.028 -15.35523,-0.0784 -23.03293,-0.0898 -8.20895,0.0163 -16.41832,-0.02 -24.62686,0.073 -6.41619,0.11059 -12.84335,0.23345 -19.22022,1.02626 -8.74018,1.13739 -17.32398,3.06161 -26.02168,4.42923 -8.86185,0.41872 -17.73772,0.034 -26.60567,0.32668 0,0 34.29481,-24.91664 34.29481,-24.91664 z"
       inkscape:connector-curvature="0" />
  </g>
</svg>
